{"accessors" : [{"bufferView" : 0, "byteOffset" : 0, "componentType" : 5123, "count" : 2304, "type" : "SCALAR", "max" : [2303], "min" : [0]}, {"bufferView" : 1, "byteOffset" : 0, "componentType" : 5126, "count" : 2304, "type" : "VEC3", "max" : [0.20792317390441895, 0.12515071034431458, 0.16628670692443848], "min" : [-0.18160182237625122, -0.13083434104919434, -0.1655409336090088], "name" : "POSITION"}, {"bufferView" : 1, "byteOffset" : 12, "componentType" : 5126, "count" : 2304, "type" : "VEC3", "max" : [0.9975120425224304, 0.9993985295295715, 0.9997109770774841], "min" : [-0.9999374747276306, -0.9999973773956299, -0.9983571171760559], "name" : "NORMAL"}, {"bufferView" : 1, "byteOffset" : 24, "componentType" : 5126, "count" : 2304, "type" : "VEC2", "max" : [0.99853515625, 1], "min" : [0, 0.07828515768051147], "name" : "TEXCOORD_0"}], "asset" : {"generator" : "Aspose.3D 22.1", "version" : "2.0"}, "buffers" : [{"uri" : "data:application/octet-stream;base64,", "byteLength" : 78344}], "bufferViews" : [{"buffer" : 0, "byteOffset" : 0, "byteLength" : 4608, "target" : 34963}, {"buffer" : 0, "byteOffset" : 4612, "byteLength" : 73728, "byteStride" : 32, "target" : 34962}], "images" : [{"uri" : "data:application/octet-stream;base64,"}], "materials" : [{"name" : "skatter_rock_01 [imported]", "pbrMetallicRoughness" : {"baseColorFactor" : [1, 1, 1, 1], "baseColorTexture" : {"index" : 0, "texCoord" : 0}, "metallicFactor" : 0, "roughnessFactor" : 1}, "emissiveFactor" : [0, 0, 0], "alphaMode" : "OPAQUE", "doubleSided" : true}], "meshes" : [{"primitives" : [{"attributes" : {"POSITION" : 1, "NORMAL" : 2, "TEXCOORD_0" : 3}, "indices" : 0, "material" : 0, "mode" : 4}]}], "nodes" : [{"mesh" : 0, "name" : "Object.123"}], "samplers" : [{"magFilter" : 9729, "minFilter" : 9987, "wrapS" : 10497, "wrapT" : 10497}], "scene" : 0, "scenes" : [{"nodes" : [0]}], "textures" : [{"sampler" : 0, "source" : 0}]}