{
    "asset" : {
        "generator" : "Khronos glTF Blender I/O v1.8.19",
        "version" : "2.0"
    },
    "scene" : 0,
    "scenes" : [
        {
            "name" : "Scene",
            "nodes" : [
                0
            ]
        }
    ],
    "nodes" : [
        {
            "mesh" : 0,
            "name" : "Object.123"
        }
    ],
    "materials" : [
        {
            "doubleSided" : true,
            "name" : "skatter_rock_01 [imported]",
            "pbrMetallicRoughness" : {
                "metallicFactor" : 0,
                "roughnessFactor" : 0
            }
        }
    ],
    "meshes" : [
        {
            "name" : "Brep e44c76af-c5cc-4b74-94cf-42c4f732058e",
            "primitives" : [
                {
                    "attributes" : {
                        "POSITION" : 0,
                        "NORMAL" : 1,
                        "TEXCOORD_0" : 2
                    },
                    "indices" : 3,
                    "material" : 0
                }
            ]
        }
    ],
    "accessors" : [
        {
            "bufferView" : 0,
            "componentType" : 5126,
            "count" : 2304,
            "max" : [
                0.20792317390441895,
                0.12515071034431458,
                0.16628670692443848
            ],
            "min" : [
                -0.18160182237625122,
                -0.13083434104919434,
                -0.1655409336090088
            ],
            "type" : "VEC3"
        },
        {
            "bufferView" : 1,
            "componentType" : 5126,
            "count" : 2304,
            "type" : "VEC3"
        },
        {
            "bufferView" : 2,
            "componentType" : 5126,
            "count" : 2304,
            "type" : "VEC2"
        },
        {
            "bufferView" : 3,
            "componentType" : 5123,
            "count" : 2304,
            "type" : "SCALAR"
        }
    ],
    "bufferViews" : [
        {
            "buffer" : 0,
            "byteLength" : 27648,
            "byteOffset" : 0
        },
        {
            "buffer" : 0,
            "byteLength" : 27648,
            "byteOffset" : 27648
        },
        {
            "buffer" : 0,
            "byteLength" : 18432,
            "byteOffset" : 55296
        },
        {
            "buffer" : 0,
            "byteLength" : 4608,
            "byteOffset" : 73728
        }
    ],
    "buffers" : [
        {
            "byteLength" : 78336,
            "uri" : "data:application/octet-stream;base64,"
        }
    ]
}
