{"accessors" : [{"bufferView" : 0, "byteOffset" : 0, "componentType" : 5123, "count" : 390, "type" : "SCALAR", "max" : [389], "min" : [0]}, {"bufferView" : 1, "byteOffset" : 0, "componentType" : 5126, "count" : 390, "type" : "VEC3", "max" : [0.3089609146118164, 0.2593483328819275, 0.32168644666671753], "min" : [-0.302167683839798, -0.2753373980522156, -0.24722768366336823], "name" : "POSITION"}, {"bufferView" : 1, "byteOffset" : 12, "componentType" : 5126, "count" : 390, "type" : "VEC3", "max" : [0.8301215171813965, 0.9554831385612488, 0.9879992008209229], "min" : [-0.9988459944725037, -0.9629580974578857, -0.981256365776062], "name" : "NORMAL"}, {"bufferView" : 1, "byteOffset" : 24, "componentType" : 5126, "count" : 390, "type" : "VEC2", "max" : [0.9154345989227295, 1], "min" : [0, 0.00146484375], "name" : "TEXCOORD_0"}], "asset" : {"generator" : "Aspose.3D 22.1", "version" : "2.0"}, "buffers" : [{"uri" : "data:application/octet-stream;base64,", "byteLength" : 13268}], "bufferViews" : [{"buffer" : 0, "byteOffset" : 0, "byteLength" : 780, "target" : 34963}, {"buffer" : 0, "byteOffset" : 784, "byteLength" : 12480, "byteStride" : 32, "target" : 34962}], "images" : [{"uri" : "data:application/octet-stream;base64,"}], "materials" : [{"name" : "skatter_gravel_01", "pbrMetallicRoughness" : {"baseColorFactor" : [1, 1, 1, 1], "baseColorTexture" : {"index" : 0, "texCoord" : 0}, "metallicFactor" : 0, "roughnessFactor" : 0}, "emissiveFactor" : [0, 0, 0], "alphaMode" : "OPAQUE", "doubleSided" : true}], "meshes" : [{"primitives" : [{"attributes" : {"POSITION" : 1, "NORMAL" : 2, "TEXCOORD_0" : 3}, "indices" : 0, "material" : 0, "mode" : 4}]}], "nodes" : [{"mesh" : 0, "name" : "Object.065"}], "samplers" : [{"magFilter" : 9729, "minFilter" : 9987, "wrapS" : 10497, "wrapT" : 10497}], "scene" : 0, "scenes" : [{"nodes" : [0]}], "textures" : [{"sampler" : 0, "source" : 0}]}